<svg width="24" height="26" viewBox="0 0 24 26" fill="none" xmlns="http://www.w3.org/2000/svg">
<path d="M12.3879 17.0029C15.4262 17.0029 17.8891 13.5492 17.8891 9.28883C17.8891 5.02844 15.4262 1.57471 12.3879 1.57471C9.34969 1.57471 6.88672 5.02844 6.88672 9.28883C6.88672 13.5492 9.34969 17.0029 12.3879 17.0029Z" fill="white"/>
<path d="M12.3009 16.5098C7.69506 16.5098 3.57844 17.6285 0.839844 19.384C2.14038 21.2494 3.86292 22.7725 5.86358 23.8263C7.86423 24.8801 10.0849 25.4339 12.3401 25.4415C14.5953 25.4491 16.8196 24.9102 18.8271 23.8698C20.8346 22.8295 22.5671 21.318 23.8798 19.4614C21.15 17.6595 16.9744 16.5098 12.3009 16.5098Z" fill="white"/>
<path d="M13.2244 11.1196H11.5472C10.3869 11.1196 9.44629 12.0719 9.44629 13.2466V18.0864C9.44629 19.2611 10.3869 20.2134 11.5472 20.2134H13.2244C14.3847 20.2134 15.3253 19.2611 15.3253 18.0864V13.2466C15.3253 12.0719 14.3847 11.1196 13.2244 11.1196Z" fill="white"/>
<path d="M7.75433 9.72646C7.9203 10.9646 7.64732 12.0369 7.14939 12.1232C6.65146 12.2094 6.11204 11.2764 5.94607 10.0382C5.78009 8.80005 6.05308 7.72994 6.55319 7.64371C7.0533 7.55748 7.59053 8.49052 7.75433 9.72646Z" fill="white"/>
<path d="M17.0204 9.72646C16.8566 10.9646 17.1274 12.0369 17.6276 12.1232C18.1277 12.2094 18.6649 11.2764 18.8287 10.0382C18.9925 8.80005 18.7217 7.72994 18.2238 7.64371C17.7258 7.55748 17.1864 8.49052 17.0204 9.72646Z" fill="white"/>
<path d="M7.07747 8.98584C6.89403 7.75064 6.70767 6.51544 6.5184 5.28024C6.4507 4.83804 6.38736 4.35826 6.54897 3.93596C6.71058 3.51366 7.18885 3.17096 7.61034 3.33457C7.44218 2.47671 8.38125 1.84216 9.20021 1.56579C10.5657 1.05576 12.0287 0.870417 13.4763 1.0241C14.9317 1.18897 16.2821 1.87139 17.2871 2.94986C17.6022 3.28955 17.8459 3.69046 18.0035 4.12831C18.2852 4.97512 18.1061 5.8971 17.9248 6.78149L17.4881 8.86645C17.4677 9.02683 17.4068 9.17916 17.3112 9.30865C17.1408 9.501 16.8525 9.51427 16.597 9.51648L8.41401 9.53417C7.9008 9.53417 7.23035 9.40593 7.16264 8.89077" fill="white"/>
</svg>
