<svg width="14" height="14" viewBox="0 0 14 14" fill="none" xmlns="http://www.w3.org/2000/svg">
<path d="M6.99967 8.7335L7.93301 6.60016L10.0663 5.66683L7.93301 4.7335L6.99967 2.60016L6.06634 4.7335L3.93301 5.66683L6.06634 6.60016L6.99967 8.7335ZM0.333008 13.6668V1.3335C0.333008 1.07794 0.433008 0.847385 0.633008 0.641829C0.833008 0.436274 1.06634 0.333496 1.33301 0.333496H12.6663C12.9219 0.333496 13.1525 0.436274 13.358 0.641829C13.5636 0.847385 13.6663 1.07794 13.6663 1.3335V10.0002C13.6663 10.2557 13.5636 10.4863 13.358 10.6918C13.1525 10.8974 12.9219 11.0002 12.6663 11.0002H2.99967L0.333008 13.6668ZM1.33301 11.2502L2.58301 10.0002H12.6663V1.3335H1.33301V11.2502Z" fill="#FF5C00"/>
</svg>
