<svg width="18" height="19" viewBox="0 0 18 19" fill="none" xmlns="http://www.w3.org/2000/svg">
<path d="M1.5 19C1.1 19 0.75 18.8499 0.45 18.5499C0.15 18.25 0 17.9 0 17.5V12.25H1.5V17.5H16.5V2.44995H1.5V7.74995H0V2.44995C0 2.04995 0.15 1.69995 0.45 1.39995C0.75 1.09995 1.1 0.949951 1.5 0.949951H16.5C16.9 0.949951 17.25 1.09995 17.55 1.39995C17.85 1.69995 18 2.04995 18 2.44995V17.5C18 17.9 17.85 18.25 17.55 18.5499C17.25 18.8499 16.9 19 16.5 19H1.5ZM7.325 14.825L6.2 13.7L9.15 10.75H0V9.24995H9.15L6.2 6.29995L7.325 5.17495L12.15 9.99995L7.325 14.825Z" fill="white"/>
</svg>
