<svg width="26" height="26" viewBox="0 0 26 26" fill="#E80000" xmlns="http://www.w3.org/2000/svg">
<path d="M13 25.5C11.2708 25.5 9.64583 25.1719 8.125 24.5156C6.60417 23.8594 5.28125 22.9688 4.15625 21.8438C3.03125 20.7188 2.14062 19.3958 1.48438 17.875C0.828125 16.3542 0.5 14.7292 0.5 13C0.5 11.2708 0.828125 9.64583 1.48438 8.125C2.14062 6.60417 3.03125 5.28125 4.15625 4.15625C5.28125 3.03125 6.60417 2.14062 8.125 1.48438C9.64583 0.828125 11.2708 0.5 13 0.5C14.7292 0.5 16.3542 0.828125 17.875 1.48438C19.3958 2.14062 20.7188 3.03125 21.8438 4.15625C22.9688 5.28125 23.8594 6.60417 24.5156 8.125C25.1719 9.64583 25.5 11.2708 25.5 13C25.5 14.7292 25.1719 16.3542 24.5156 17.875C23.8594 19.3958 22.9688 20.7188 21.8438 21.8438C20.7188 22.9688 19.3958 23.8594 17.875 24.5156C16.3542 25.1719 14.7292 25.5 13 25.5ZM13 23.625C15.9661 23.625 18.4785 22.5957 20.5371 20.5371C22.5957 18.4785 23.625 15.9661 23.625 13C23.625 11.7362 23.4062 10.5192 22.9688 9.34903C22.5312 8.17884 21.9167 7.11458 21.125 6.15625L6.15625 21.125C7.09375 21.9375 8.15097 22.5573 9.32791 22.9844C10.5049 23.4115 11.7289 23.625 13 23.625ZM4.90625 19.8438L19.8438 4.90625C18.8854 4.09375 17.8212 3.46875 16.651 3.03125C15.4808 2.59375 14.2638 2.375 13 2.375C10.0339 2.375 7.52148 3.40429 5.46287 5.46288C3.40429 7.52148 2.375 10.0339 2.375 13C2.375 14.2711 2.60417 15.4951 3.0625 16.6721C3.52083 17.849 4.13542 18.9062 4.90625 19.8438Z"/>
</svg>
