<svg width="28" height="19" viewBox="0 0 28 19" fill="black" xmlns="http://www.w3.org/2000/svg">
<path d="M14 14.6875C15.4792 14.6875 16.7344 14.1719 17.7656 13.1406C18.7969 12.1094 19.3125 10.8542 19.3125 9.375C19.3125 7.89583 18.7969 6.64062 17.7656 5.60938C16.7344 4.57813 15.4792 4.0625 14 4.0625C12.5208 4.0625 11.2656 4.57813 10.2344 5.60938C9.20312 6.64062 8.6875 7.89583 8.6875 9.375C8.6875 10.8542 9.20312 12.1094 10.2344 13.1406C11.2656 14.1719 12.5208 14.6875 14 14.6875ZM14 12.875C13.0208 12.875 12.1927 12.5365 11.5156 11.8594C10.8385 11.1823 10.5 10.3542 10.5 9.375C10.5 8.39583 10.8385 7.56771 11.5156 6.89062C12.1927 6.21354 13.0208 5.875 14 5.875C14.9792 5.875 15.8073 6.21354 16.4844 6.89062C17.1615 7.56771 17.5 8.39583 17.5 9.375C17.5 10.3542 17.1615 11.1823 16.4844 11.8594C15.8073 12.5365 14.9792 12.875 14 12.875ZM14 18.75C10.9583 18.75 8.20833 17.8854 5.75 16.1562C3.29167 14.4271 1.45833 12.1667 0.25 9.375C1.45833 6.58333 3.29167 4.32292 5.75 2.59375C8.20833 0.864583 10.9583 0 14 0C17.0417 0 19.7917 0.864583 22.25 2.59375C24.7083 4.32292 26.5417 6.58333 27.75 9.375C26.5417 12.1667 24.7083 14.4271 22.25 16.1562C19.7917 17.8854 17.0417 18.75 14 18.75ZM14 16.875C16.5208 16.875 18.8385 16.1927 20.9531 14.8281C23.0677 13.4635 24.6771 11.6458 25.7812 9.375C24.6771 7.10417 23.0677 5.28646 20.9531 3.92187C18.8385 2.55729 16.5208 1.875 14 1.875C11.4792 1.875 9.16146 2.55729 7.04688 3.92187C4.93229 5.28646 3.3125 7.10417 2.1875 9.375C3.3125 11.6458 4.93229 13.4635 7.04688 14.8281C9.16146 16.1927 11.4792 16.875 14 16.875Z"/>
</svg>
