<svg width="24" height="24" viewBox="0 0 24 24" fill="none" xmlns="http://www.w3.org/2000/svg">
<path d="M2.625 21.375H4L17.8438 7.53125L16.4688 6.15625L2.625 20V21.375ZM21.8125 6.1875L17.8125 2.1875L19.125 0.875C19.4792 0.520833 19.9167 0.34375 20.4375 0.34375C20.9583 0.34375 21.3958 0.520833 21.75 0.875L23.125 2.25C23.4792 2.60417 23.6562 3.04167 23.6562 3.5625C23.6562 4.08333 23.4792 4.52083 23.125 4.875L21.8125 6.1875ZM20.5 7.5L4.75 23.25H0.75V19.25L16.5 3.5L20.5 7.5ZM17.1562 6.84375L16.4688 6.15625L17.8438 7.53125L17.1562 6.84375Z" fill="#34A853"/>
</svg>
