<svg xmlns="http://www.w3.org/2000/svg" viewBox="0 0 354.02 176.32"><defs><style>.cls-1{fill:#fff;}</style></defs><g id="Layer_2" data-name="Layer 2"><g id="Layer_1-2" data-name="Layer 1"><path class="cls-1" d="M4.59,0h43c0,15.12,0,30.09,0,45.06,0,11.54,6.86,19.66,16.37,19.5s16.37-8.18,16.4-19.67c0-14.79,0-29.59,0-44.73h42.66c0,15.36,0,30.39,0,45.42,0,23-.72,46.06.07,69.05,1.14,33.33-26.76,59.1-53.85,61.29-14.79,1.2-28.64,0-41.66-6.7s-38.63-36-22.39-33.73c13.63,1.87,23.1,3.28,32.82,4.6h0c19.37,2,25.75.92,29.37-.09a17.83,17.83,0,0,0,5.72-2.2A5.69,5.69,0,0,0,76.08,133c-.16-2.06-2.8-3.74-5-4,.3-.05,7.11-.2,8.53-4,.24-.61,1.09-3.17-.25-5.07-1-1.39-2.21-2.16-4.6-2.61,3,.44,8-1.78,8.16-5.83.1-3.37-1.63-4.34-3.19-5.46a7.41,7.41,0,0,0-3.25-1.1c.32-.13,3.11-1.27,3.71-4A5.57,5.57,0,0,0,79,96.32c-2.12-2.27-7.45-2.94-11.33-3.47A88.63,88.63,0,0,0,55,92.06c-.64-4.3-.77-9.16-2.23-13.58a18.59,18.59,0,0,0-6-8.46c-4.32-3.29-9.83-.74-8.82,4.31,2.31,11.68-7,17.57-11.29,25.92-.54,1-3.29,1.62-4.86,1.37C13.43,100.34,6.18,93.31,5.72,84.7,4.89,69.16,4.82,53.58,4.62,38,4.47,25.59,4.59,13.17,4.59,0Z"/><path class="cls-1" d="M173.25,176.32q-12.74,0-21.56-4.14a31.35,31.35,0,0,1-13.43-11.31,29,29,0,0,1-4.61-16,27,27,0,0,1,5-16.3q5-6.87,15.39-10.55t26.86-3.68H206V133H186q-9,0-12.65,2.83a9.56,9.56,0,0,0,.1,15.08q3.72,2.82,10.19,2.82a21.54,21.54,0,0,0,11.08-2.92,17.08,17.08,0,0,0,7.35-8.95l5.1,13.19Q204.23,165.58,195.7,171T173.25,176.32Zm31.37-1.69v-19l-2.55-4.71V115.82q0-8.49-5.39-13.1T179.53,98.1A53.62,53.62,0,0,0,164,100.46a41.85,41.85,0,0,0-13.33,6.5L138.16,82.64a73.55,73.55,0,0,1,21.66-8.76A105.36,105.36,0,0,1,185,70.77q25.88,0,40.09,11.4t14.22,35.72v56.74Z"/><path class="cls-1" d="M301.48,176.32a115.05,115.05,0,0,1-26.38-3q-12.84-3-20.68-7.54l11.18-24.51a67.1,67.1,0,0,0,17.45,6.88,79.1,79.1,0,0,0,19.6,2.55q9.42,0,13-1.89t3.63-5.09c0-2-1.15-3.48-3.43-4.43a37.42,37.42,0,0,0-9-2.16q-5.6-.75-12.26-1.7t-13.43-2.54a44.22,44.22,0,0,1-12.35-4.9,25,25,0,0,1-8.92-9q-3.33-5.65-3.33-14.32a27.49,27.49,0,0,1,6-17.44q6-7.64,17.54-12.06t28.24-4.43A121.23,121.23,0,0,1,331,72.94a64.59,64.59,0,0,1,19.31,6.5l-11.17,24.31a55.66,55.66,0,0,0-15.69-5.93,74.39,74.39,0,0,0-14.9-1.61q-9.4,0-13.23,2.08t-3.82,5.09q0,3,3.33,4.62a32.48,32.48,0,0,0,8.92,2.45q5.59.84,12.25,1.69a115.66,115.66,0,0,1,13.43,2.55,46.34,46.34,0,0,1,12.36,5,25.32,25.32,0,0,1,8.92,8.86q3.33,5.57,3.33,14.23a26.59,26.59,0,0,1-6,17q-6,7.53-17.65,12.06T301.48,176.32Z"/></g></g></svg>