<svg width="12" height="12" viewBox="0 0 12 12" fill="none" xmlns="http://www.w3.org/2000/svg">
<path d="M2.25 11.25V10.125H7.66875C8.54375 10.125 9.29687 9.83437 9.92812 9.25312C10.5594 8.67188 10.875 7.95 10.875 7.0875C10.875 6.225 10.5594 5.50313 9.92812 4.92188C9.29687 4.34062 8.54375 4.05 7.66875 4.05H2.1375L4.275 6.1875L3.4875 6.975L0 3.4875L3.4875 0L4.275 0.7875L2.1375 2.925H7.65C8.8375 2.925 9.85938 3.325 10.7156 4.125C11.5719 4.925 12 5.9125 12 7.0875C12 8.2625 11.5719 9.25 10.7156 10.05C9.85938 10.85 8.8375 11.25 7.65 11.25H2.25Z" fill="black"/>
</svg>
