<svg width="28" height="21" viewBox="0 0 28 21" fill="none" xmlns="http://www.w3.org/2000/svg">
<path d="M14.0312 20.0625C11.3021 20.0625 8.95312 19.0781 6.98437 17.1094C5.01562 15.1406 4.03125 12.7917 4.03125 10.0625V8.65625L1.53125 11.1562L0.3125 9.9375L4.96875 5.28125L9.625 9.9375L8.40625 11.1562L5.90625 8.65625V10.0625C5.90625 12.2917 6.70312 14.2031 8.29687 15.7969C9.89062 17.3906 11.8021 18.1875 14.0312 18.1875C14.6354 18.1875 15.2083 18.1354 15.75 18.0312C16.2917 17.9271 16.8021 17.7708 17.2812 17.5625L18.625 18.9062C17.875 19.3229 17.1198 19.6198 16.3594 19.7969C15.599 19.974 14.8229 20.0625 14.0312 20.0625ZM23.0625 14.7812L18.4062 10.125L19.6562 8.875L22.125 11.3438V10.0625C22.125 7.83333 21.3281 5.92188 19.7344 4.32812C18.1406 2.73438 16.2292 1.9375 14 1.9375C13.3958 1.9375 12.8229 1.99479 12.2812 2.10937C11.7396 2.22396 11.2292 2.36458 10.75 2.53125L9.40625 1.1875C10.1562 0.770833 10.9115 0.479166 11.6719 0.3125C12.4323 0.145833 13.2083 0.0625 14 0.0625C16.7292 0.0625 19.0781 1.04687 21.0469 3.01562C23.0156 4.98437 24 7.33333 24 10.0625V11.4062L26.5 8.90625L27.7187 10.125L23.0625 14.7812Z" fill="#13376C"/>
</svg>
